<?xml version="1.0" standalone="no"?><!DOCTYPE svg PUBLIC "-//W3C//DTD SVG 1.1//EN" "http://www.w3.org/Graphics/SVG/1.1/DTD/svg11.dtd"><svg t="1512563999485" class="icon" style="" viewBox="0 0 1024 1024" version="1.1" xmlns="http://www.w3.org/2000/svg" p-id="2222" xmlns:xlink="http://www.w3.org/1999/xlink" width="32" height="32"><defs><style type="text/css"></style></defs><path d="M928 544c-17.673 0-32-14.327-32-32 0-102.57-39.943-199.001-112.472-271.529C711.001 167.943 614.57 128 512 128c-17.673 0-32-14.327-32-32s14.327-32 32-32c60.466 0 119.14 11.85 174.392 35.219 53.352 22.565 101.259 54.864 142.392 95.997 41.134 41.133 73.432 89.041 95.997 142.392C948.15 392.86 960 451.534 960 512 960 529.673 945.673 544 928 544z" p-id="2223"></path></svg>
